<svg id="Layer_1" data-name="Layer 1" xmlns="http://www.w3.org/2000/svg" viewBox="0 0 300 39.12"><defs><style>.cls-1{fill:#249d9d;}</style></defs><title>deadspin</title><path class="cls-1" d="M38.26,13.1H3.15V0.56h25c3.67,0,6.41,1.07,8.13,3.19C39.08,7.12,38.42,12.1,38.26,13.1Z"/><path class="cls-1" d="M36.32,28.09c0,0.09-1.91,11-12.38,11H1.34a1.54,1.54,0,0,1-1-.51A1.91,1.91,0,0,1,0,37.08c0.24-1.65,2-15.17,2.91-22.31H16L14.15,27h10L26,14.77H38Z"/><path class="cls-1" d="M229,25.67H218.57l-0.07.74c0,0.54-.16,1.55-0.4,3.29-1.6,9.16-12,9.43-13.23,9.43h0L208,13.36h33.8C240.94,19.66,236.53,25.67,229,25.67Z"/><path class="cls-1" d="M208.14,11.8l1.39-11.6h22.68a8.92,8.92,0,0,1,7.3,3.35,12.44,12.44,0,0,1,2.39,7.68c0,0.19,0,.38,0,0.56H208.14Z"/><path class="cls-1" d="M74.07,11.78H44.77V0.17H80.46C80.41,6.91,77,10.2,74.07,11.78Z"/><path class="cls-1" d="M53.87,25.66v1.56h14l0.31,0.11a9.89,9.89,0,0,1,4.24,2.77c1.71,2,2.37,4.65,2,8-0.1.61-1.12,1.07-2.46,1.07H50a8.64,8.64,0,0,1-5.47-3.29c-1.89-2.49-2.46-6.05-1.7-10.58,0.93-6.4,1.82-11.14,2-11.82H77.06a0.76,0.76,0,0,1,.35.3,2.56,2.56,0,0,1,.12,1.88c-0.17.82-1.86,7.91-8.86,10H53.87Z"/><path class="cls-1" d="M258.81,11.61h-6.46a5.69,5.69,0,0,1-4.49-1.79c-2.64-3.56-1.85-9-1.71-9.81h14.4Z"/><path class="cls-1" d="M254.69,39a14,14,0,0,1-1.64.09c-1.92,0-5.46-.36-7.54-2.77-1.5-1.73-2-4.23-1.56-7.44,1.57-10.9,2.14-15,2.24-15.72h6.19l-0.06,0h6.25Z"/><path class="cls-1" d="M264.63,11.76V0.16h25.14c3.69,0,6.43,1.08,8.15,3.21,2.19,2.72,2.19,6.42,2,8.39H264.63Z"/><polygon class="cls-1" points="272.76 39.06 260.92 39.06 264.61 13.31 276.49 13.31 272.76 39.06"/><path class="cls-1" d="M295.79,39a13.64,13.64,0,0,1-1.74.1c-1.88,0-5.35-.37-7.46-2.81-1.64-1.9-2.19-4.72-1.65-8.37,1.35-9.14,1.91-12.69,2.12-14l0.09-.63h12.53Z"/><path class="cls-1" d="M196.17,12.39h-26.7C169.92,0.58,181.61,0,182.1,0h22.78C204.83,8.28,199.86,11.29,196.17,12.39Z"/><path class="cls-1" d="M200.56,26.44v0.14C199.4,38.52,188.23,39.12,186,39.12H165.85c0.06-8.22,5.56-11.19,9.49-12.26h14.32V25.3H177.09l-0.54-.24c-3.06-1.33-6.75-4.34-7.06-11.11h24.67l0.6,0.28C197.83,15.67,201.34,19,200.56,26.44Z"/><path class="cls-1" d="M127.53,12.61V0.92h25.2c3.73,0,6.5,1.08,8.23,3.21,2.29,2.81,2.18,6.73,2,8.48H127.53Z"/><path class="cls-1" d="M160.92,28.19c-0.07.42-1.92,10.93-12.46,10.93H125.71a1.56,1.56,0,0,1-1-.51,1.86,1.86,0,0,1-.3-1.51c0.25-1.69,2.15-16.12,3-22.86h13.14l-2,12.91h10l1.95-12.91h12.14Z"/><polygon class="cls-1" points="93.64 39.11 81.44 39.11 83.21 27.62 95.09 27.62 93.64 39.11"/><path class="cls-1" d="M85.41,12.25C86.5,1.16,98.13.4,98.65,0.37h10.21c4.53,0,7.85,1.27,9.86,3.77a11.74,11.74,0,0,1,2.18,8.11H85.41Z"/><path class="cls-1" d="M120.68,13.89v0L119.4,26.68c-0.06.5-1.49,12.45-12.49,12.45-0.51,0-1,0-1.58-.08l1.53-11.42,0.1-.76,0.1-.76H83.45L85.32,14V13.9s0-.09,0-0.13h35.38Z"/></svg>