<svg id="Layer_1" data-name="Layer 1" xmlns="http://www.w3.org/2000/svg" viewBox="0 0 300 32.38"><defs><style>.cls-1{fill:#d61f27;}</style></defs><title>gawker</title><path class="cls-1" d="M38.13,0V12.82h-0.8C34.66,8.28,30.45,1.07,21,1.07,9.42,1.07,9,12.09,9,17.43c0,7.34.93,13.89,11.95,13.89,2.94,0,8.42-1,9.08-3.61V20.23l-2.34-2.47H22.77V16.69H45.54v1.07H41.34l-3,2.54v7.15a5.57,5.57,0,0,0,.53,2.07l-0.4.4a2.62,2.62,0,0,0-1.87-.53c-3.6,0-9.42,3-16.89,3C6.61,32.38,0,24.31,0,17,0,5.74,10.62,0,20.7,0,26,0,30.58,2.4,33.32,2.4A4.75,4.75,0,0,0,37.4,0h0.73Z"/><path class="cls-1" d="M164,4l-2.77-2.84h-4.39V0.07H176V1.15h-1.76l-2.09,2.17V16l13.23-9.93-3.58-4.93h-2.5V0.07h21.88V1.15h-5.81L183.27,9.8l11.82,17.63,2.57,2.7h4.45V31.2H181.18V30.12h3.65l0.74-3.24L177,14.26l-4.86,3.85v9.66l2.23,2.36h3.24V31.2H156.87V30.12h4.52l2.63-2.7V4Z"/><path class="cls-1" d="M217.14,3.93L214,1.13h-4.58V0h38.15L248,11.94h-1.1L239,1.13H228.22l-2.53,2.6V13.92h5l6.15-7.11h0.82V22.12h-0.82l-6.22-6.91h-4.92V27.93l2.25,2.53h10.4l9-10.94h0.82v12H209.41v-1.1h5l2.73-2.8V3.93Z"/><path class="cls-1" d="M265,3.92l-3.15-2.8h-5V0h27.7c5.82,0,14,1,14,7.59,0,5.55-7.52,6.5-11.35,7-3.15.42-3.63,0.49-3.63,1.17,0,1.3,2.94,2.33,8.28,2.33l2.67,9c0.82,2.67,2.53,3.36,3.21,3.36H300v1.1H287.14L283,18.84c-0.48-1.44-2-3.35-5.47-3.35h-4.38V27.93l2.87,2.53h4.44v1.1H256.84v-1.1h5.4l2.74-2.8V3.92Zm8.21,10.47c9,0,16.14,0,16.14-6.84,0-3.21-1.23-6.43-7.25-6.43h-5.61l-3.28,2.6V14.39Z"/><path class="cls-1" d="M75.79,28.43L73.19,22H58.48L56.61,25.3l2.46,5.13h2.46v1.07H48.43V30.43a9.08,9.08,0,0,0,5.72-4.33L69.06,0h3.26L84,27.3c1.33,3.13,5.19,3.13,6.46,3.13v1.07H69.53V30.43h4.73Zm-3.33-7.86L67.13,8.19a0.54,0.54,0,0,0-.4-0.2,0.61,0.61,0,0,0-.53.33L59.28,20.57H72.46Z"/><path class="cls-1" d="M88.26,0.05h21.65V1.13h-4.17l-2,3.3,7.73,16.74a0.75,0.75,0,0,0,.4.41,0.44,0.44,0,0,0,.34-0.41l9.08-21.11h2.82l9.15,21.45a0.68,0.68,0,0,0,.47.4,0.6,0.6,0,0,0,.4-0.4l7.12-14.26-5-6.12H132V0.05h20V1.13h-3.83l-5.58,6.33-12.37,24.4h-1.55l-9.14-21.78A0.69,0.69,0,0,0,119,9.66a0.63,0.63,0,0,0-.54.41l-8.94,21.78H107.7L95.6,5.77,91.7,1.13H88.26V0.05Z"/></svg>