<svg id="logos" xmlns="http://www.w3.org/2000/svg" viewBox="0 0 300 43.05"><title>gizmodo</title><path d="M49.16,37.91V5.11a5.52,5.52,0,0,1,1.17-3.83,3.89,3.89,0,0,1,3-1.28,4,4,0,0,1,3.08,1.26,5.47,5.47,0,0,1,1.18,3.85v32.8a5.53,5.53,0,0,1-1.18,3.86A4,4,0,0,1,53.34,43a3.88,3.88,0,0,1-3-1.29,5.54,5.54,0,0,1-1.18-3.85"/><path d="M278.49,43A21.51,21.51,0,1,1,300,21.54,21.54,21.54,0,0,1,278.49,43m0-34.31a12.8,12.8,0,1,0,12.8,12.8,12.82,12.82,0,0,0-12.8-12.8"/><path d="M181.93,43a21.51,21.51,0,1,1,21.51-21.51A21.53,21.53,0,0,1,181.93,43m0-34.31a12.8,12.8,0,1,0,12.8,12.8,12.82,12.82,0,0,0-12.8-12.8"/><path d="M250.09,21.52h0A21.54,21.54,0,0,0,229.22,0l-0.64,0h-10.8a5.44,5.44,0,0,0-4,1.26,5.65,5.65,0,0,0-1.24,4.07V37.7a5.65,5.65,0,0,0,1.24,4.07,5.43,5.43,0,0,0,4,1.26h10.8l0.64,0a21.54,21.54,0,0,0,20.87-21.5h0Zm-20,12.71c-1,.07-2.16.08-3.36,0.08h-5.65V8.73h5.65c1.2,0,2.32,0,3.36.08A12.82,12.82,0,0,1,241.38,21.5v0h0v0A12.82,12.82,0,0,1,230.1,34.23"/><path d="M148.24,0.19a3.69,3.69,0,0,0-4.19,1.52l-13,19.76-13-19.76A3.69,3.69,0,0,0,113.93.19a3.8,3.8,0,0,0-2.64,3.65V39a3.73,3.73,0,1,0,7.46,0V16.37l9.21,14,0,0v0l0,0,0.18,0.25,0.09,0.1L128.45,31l0.15,0.15,0.11,0.1,0.23,0.17,0.06,0h0l0.25,0.16,0.07,0,0.2,0.1a3.65,3.65,0,0,0,1.17.33h0.75a3.65,3.65,0,0,0,1.17-.33l0.2-.1,0.07,0,0.25-.16h0l0.06,0,0.23-.17,0.12-.11,0.15-.14,0.16-.18,0.09-.1,0.18-.25,0,0v0l0,0,9.21-14V39a3.73,3.73,0,1,0,7.46,0V3.84A3.81,3.81,0,0,0,148.24.19"/><path d="M98.58,41.74H70.69A4.15,4.15,0,0,1,67,39.39a4.7,4.7,0,0,1,.57-4.92L90.38,8H71.53A3.87,3.87,0,0,1,67.8,4,3.5,3.5,0,0,1,71.53.47H96.95a5.33,5.33,0,0,1,4.31,1.69c1.21,1.33,1.16,4.2-.2,5.91L79,33.77H98.58a3.73,3.73,0,0,1,3.56,4,3.73,3.73,0,0,1-3.56,4"/><path d="M21.35,43A20.93,20.93,0,0,1,5.55,36.14,21.56,21.56,0,0,1,0,21.94C0,6,13.29,0,21.67,0A28,28,0,0,1,36.2,4.21a4.13,4.13,0,0,1,1.11,5.68A4,4,0,0,1,31.72,11,20.14,20.14,0,0,0,21.67,8.19c-5.25,0-12.49,3.47-12.49,13.75,0,5.85,4.35,12.76,12.34,12.76A17.74,17.74,0,0,0,31,32.34V26.25H24.78a4.09,4.09,0,0,1,0-8.19H35a4.07,4.07,0,0,1,4,4.09V34.33a4.12,4.12,0,0,1-1.23,2.94C35.14,39.93,29.2,43,21.35,43"/></svg>