<?xml version="1.0" encoding="utf-8"?>
<!-- Generator: Adobe Illustrator 19.2.1, SVG Export Plug-In . SVG Version: 6.00 Build 0)  -->
<svg version="1.1" id="Layer_1" xmlns="http://www.w3.org/2000/svg" xmlns:xlink="http://www.w3.org/1999/xlink" x="0px" y="0px"
	 viewBox="0 0 150.3 30.8" enable-background="new 0 0 150.3 30.8" xml:space="preserve">
<g>
	<path fill="#404041" d="M49.3,29h3.5l3.9-4.8V4.1c0-1,0-2.3-2-2.3h-5.5v-1h17.2L74.8,19h0.4l7.5-18.2h16.4v1h-3.9l-2.9,2.6v22
		l2.5,2.6h4.3v1H76.8v-1h4.8l2.7-2.6V4.7c0-1.1-0.1-1.6-0.6-1.6c-0.5,0-1,0.6-1.3,1.4L72.2,30h-0.6L59.4,3.7
		c-0.1-0.3-0.4-0.5-0.8-0.5c-0.3,0-0.6,0.3-0.6,0.8v20.2l4.2,4.8h3.6v1H49.3V29z"/>
	<path fill="#404041" d="M36.2,0v12.2h-0.8C32.9,7.9,28.9,1,20,1C8.9,1,8.5,11.5,8.5,16.6c0,7,0.9,13.2,11.4,13.2c2.8,0,8-1,8.6-3.4
		v-7.1l-2.2-2.3h-4.6v-1h21.6v1h-4l-2.9,2.4v6.8c0,0.6,0.2,1.2,0.5,2l-0.4,0.4c-0.3-0.3-0.9-0.5-1.8-0.5c-3.4,0-8.9,2.9-16.1,2.9
		C6.3,30.8,0,23.1,0,16.2C0,5.5,10.1,0,19.7,0c5,0,9.4,2.3,12,2.3c2.2,0,3.2-1.4,3.9-2.3H36.2z"/>
	<path fill="#404041" d="M143.3,0v12.2h-0.8C140,7.9,136,1,127.1,1c-11,0-11.5,10.5-11.5,15.5c0,7,0.9,13.2,11.4,13.2
		c2.8,0,8-1,8.6-3.4v-7.1l-2.2-2.3h-4.6v-1h21.6v1h-4l-2.9,2.4v6.8c0,0.6,0.2,1.2,0.5,2l-0.4,0.4c-0.3-0.3-0.9-0.5-1.8-0.5
		c-3.4,0-8.9,2.9-16.1,2.9c-12.4,0-18.7-7.7-18.7-14.6C107.1,5.5,117.2,0,126.7,0c5,0,9.4,2.3,12,2.3c2.2,0,3.2-1.4,3.9-2.3H143.3z"
		/>
</g>
</svg>
