<svg id="Jalopnik" xmlns="http://www.w3.org/2000/svg" viewBox="0 0 300 43.01"><defs><style>.cls-1{fill:#333;}</style></defs><title>jalopnik</title><path class="cls-1" d="M191.68,16.59c-0.53,5.33-2.61,9.46-6.19,12.28-4.24,3.35-10.89,3.66-10.89,3.66-0.94,0-2.28.08-3,.08h-1.25l-0.17,1.77-0.8,8.13H152.34l4-40.06,0.16-1.83h17.94c0.94,0,2.49,0,3.43.08,0,0,6.55.3,10.11,3.64,2.59,2.42,3.88,5.83,3.84,10.14Q191.79,15.52,191.68,16.59Z" transform="translate(0 -0.25)"/><path class="cls-1" d="M103.23,42.52H82.64a20.88,20.88,0,0,1-3.4-.34,9.12,9.12,0,0,1-4.3-2.23,7.92,7.92,0,0,1-2-5.46V34.21c0-.3.12-1.31,0.21-2.25L76.24,0.63H93.31l-2.4,24.13H105Z" transform="translate(0 -0.25)"/><polygon class="cls-1" points="52.04 42.3 51.16 21.34 46.12 42.29 26.68 42.29 46.12 0.41 60.7 0.41 71.84 42.3 52.04 42.3"/><path class="cls-1" d="M12.59,42.43c-0.69,0-2.49.08-3.43,0.08H0L1.79,24.76H11A1.94,1.94,0,0,0,12.93,23L15.18,0.63h17L29.84,24.78a24.23,24.23,0,0,1-.63,3.37S27.3,42.34,12.59,42.43Z" transform="translate(0 -0.25)"/><polygon class="cls-1" points="300 0.4 282.89 21.28 295.88 42.28 255.5 42.28 259.64 0.4 300 0.4"/><polygon class="cls-1" points="232.33 42.27 230.55 42.27 217.38 42.27 210.06 30.51 208.85 42.27 191.81 42.27 195.97 0.39 210.95 0.39 218.25 12.19 218.77 7.01 219.42 0.39 236.46 0.4 232.33 42.27"/><path class="cls-1" d="M152.5,21.62c-0.4,11.88-11,21.56-23.71,21.63s-22.66-9.5-22.26-21.37,11-21.56,23.71-21.63S152.9,9.75,152.5,21.62Z" transform="translate(0 -0.25)"/><polygon class="cls-1" points="252.11 42.26 235.7 42.26 239.89 0.36 256.3 0.36 252.11 42.26"/></svg>