<svg id="Layer_1" data-name="Layer 1" xmlns="http://www.w3.org/2000/svg" viewBox="0 0 300 68.04"><defs><style>.cls-1{fill:#ec1238;fill-rule:evenodd;}</style></defs><title>jezebel</title><path class="cls-1" d="M2.38,0H18.62V44.59c0,5.68-4.76,15-10.68,19.24A25.55,25.55,0,0,1,0,68c0-.41,0-2.15,0-3.48,1.61-1.61,2.37-6.31,2.37-10V0Z"/><path class="cls-1" d="M29.74,0H63.48V13H46v5H63v9.56H46v5.34H64.22V46H29.74V0Z"/><path class="cls-1" d="M74.89,0h40c0,2,.09,9.8.09,9.8L97.11,32.92h18.71v12.9H73.76l0.12-9.67L92,13.12H74.89V0Z"/><path class="cls-1" d="M263.52,0h16.17l0.07,32.7L300,32.64V46H263.52V0Z"/><path class="cls-1" d="M171.18,0H187a63.34,63.34,0,0,1,8.23.31,18.55,18.55,0,0,1,9.38,4.8c1.29,1.33,3.71,5,3.34,8.23-0.28,2.4-1.2,5.39-4.68,8.64,6.53,3.8,6.62,9.89,6.62,9.8,0,10.91-10.2,14.13-15.56,14.13-5.58,0-23.09.09-23.09,0.09ZM189.6,12A3.21,3.21,0,0,1,193,15.17c-0.09,1.63-.42,2.88-1.74,3.28-0.66.43-2.76,0.27-3.81,0.24V12h2.16Zm-0.05,14.28c3,0,5.46,1.45,5.46,3.08,0,4.42-2.42,4.54-7.56,4.54V26.25C188.22,26.24,188.92,26.28,189.55,26.28Z"/><path class="cls-1" d="M126.2,0h33.74V13h-17.5v5h17.05v9.56H142.44v5.34h18.24V46H126.2V0Z"/><path class="cls-1" d="M218.51,0h33.74V13h-17.5v5h17.05v9.56H234.75v5.34H253V46H218.51V0Z"/></svg>