<svg id="Final" xmlns="http://www.w3.org/2000/svg" viewBox="0 0 300 56.18"><defs><style>.cls-1{fill:#fbc000;}</style></defs><title>kotaku</title><path class="cls-1" d="M271.95,8.4l1.69,26.13-12.15.23L260.08,8.07l-9.24-.26,1.33,30.56c0.19,4.37,3.23,7.83,6.76,7.69l18.41-.71c3.26-.13,5.63-3.61,5.32-7.74l-2.13-29Z"/><path class="cls-1" d="M290.18,9.26c-0.32-3.81-3-7-6-7.09l-2.77-.11,1,14,8.34,0.12Z"/><path class="cls-1" d="M299.4,9.51c-0.34-3.74-3-6.85-5.9-7l-2.68-.11L292,16.25l8,0.12Z"/><path class="cls-1" d="M214.23,6.79l0.27,41,3.61-.14c4-.15,7.13-4,7.06-8.6l-0.49-32-10.43-.29"/><path class="cls-1" d="M226,21.42l11.18,0c3.65,0,5.31,1.67,6.67,4.27L257.31,54.9c-1.5,2-9.86,1.14-13.3-6.68l-7.15-15.9h-0.63l-0.54,0C231.84,32.4,225.86,28.69,226,21.42Z"/><path class="cls-1" d="M203.71,6.49L186.34,6c-8.27-.23-10.44,7.11-9.12,11.88l22.72,0.21-0.14,17.83-15.64.3,0.07-3.15,4.59-.07c8.22-.11,10.21-7,8.86-11.7h0l0,0-17.12-.07c-4.44,0-8.23,3.86-8.4,8.7l-0.05,1.55h0l-0.32,8.91c-0.18,5,3.43,8.93,8,8.75l23.77-.92c4.18-.16,7.53-4.12,7.51-8.81L211,14.67C211,10.25,207.73,6.6,203.71,6.49Z"/><path class="cls-1" d="M147.16,41c-0.31,5.18,3.48,9.27,8.4,9.07l4.4-.17,1.44-30.3-12.93-.08Z"/><path class="cls-1" d="M166.39,17.78c8.68,0.08,10.87-7.35,9.56-12.07l-29.32-.82c-9.34-.26-11.08,7.55-9.79,12.61Z"/><path class="cls-1" d="M125.71,4.31l-27.5-.77c-10.72-.3-14.29,8-13,13.48l34.72,0.33L118.1,37.47l-20,.38,2-18.67-15.44-.1L81.74,42.61C81,48.3,85.32,52.78,91.23,52.54l30.54-1.17a11.05,11.05,0,0,0,10.34-10l2.07-27.85A8.54,8.54,0,0,0,125.71,4.31Z"/><path class="cls-1" d="M27.69,3.48L18,55.67l6.1-.23C30.8,55.18,37,50.18,38,44.33L44.83,4,27.69,3.48"/><path class="cls-1" d="M43.56,22L61.87,22c5.94,0,8.24,2.1,9.86,5.35L83.1,55C80.23,57.5,66.82,56.62,63,46.72l-4.15-11H56.94C50.6,35.82,41.62,31.17,43.56,22Z"/><path class="cls-1" d="M22.25,17.89L24.91,3.4l-9.29-.26C2.68,2.78-.89,11.81.18,17.68Z"/><path class="cls-1" d="M54.23,21.15L77.42,16C81.77,13.27,83.64,3.47,80.58.6L58.1,6.16C54.27,8.26,49.88,14.38,54.23,21.15Z"/><path class="cls-1" d="M231.83,20.59l12.26-6.81c4.25-3.7,5.45-9.8,1.81-13.78L232.66,8.52C228,11.78,228.66,16.63,231.83,20.59Z"/></svg>