<svg id="_ogo" data-name=";ogo" xmlns="http://www.w3.org/2000/svg" viewBox="0 0 300 74.7"><defs><style>.cls-1{fill:#94b330;}</style></defs><title>lifehacker</title><path class="cls-1" d="M11.51,73.86H0V0.74L11.51,1.48V73.86Z"/><path class="cls-1" d="M24.59,5.85A6.59,6.59,0,1,1,18,12.43,6.61,6.61,0,0,1,24.59,5.85Zm5.75,68H18.84V21.71l11.51,0.65v51.5Z"/><path class="cls-1" d="M57.81,32.2V43.7H49.18V73.81H37.67V16.61C37.67,7.89,44.91,0,53.45,0A12.83,12.83,0,0,1,59.2,1.21l-0.46,11H53.45a4.34,4.34,0,0,0-4.27,4.36V32.2h8.63Z"/><path class="cls-1" d="M62.46,36.84a15.82,15.82,0,1,1,31.64,0V48a5.72,5.72,0,0,1-5.75,5.75H74v5a4.36,4.36,0,0,0,4.36,4.36h11l0.37,9.74L79.35,74.42c-10,1.67-16.89-7-16.89-15.68V36.84ZM74,42.22H82.6V36.84a4.31,4.31,0,1,0-8.63,0v5.38Z"/><path class="cls-1" d="M103.94,73.86V1.21h7.42V23.29a28.78,28.78,0,0,1,7.52-.93c7.89,0,14,7.14,14,15.22V73.86h-7.24V37.58a7.17,7.17,0,0,0-7.24-7.15h-7.05V73.86h-7.42Z"/><path class="cls-1" d="M160,36.37c0-4.18-1.95-7.52-7.24-7h0.09c-3,.09-6.77.46-9.93,0.65-0.09-2.69-.19-3.71-0.28-5.75a31.66,31.66,0,0,1,9.19-1.95c9.28-.19,15.4,7.33,15.4,15.4V59.85A14.49,14.49,0,0,1,152.9,74.42a14.65,14.65,0,0,1-14.57-14.57V55.3c0-8,5.47-14,14.57-14a23,23,0,0,1,7.15.93V36.37Zm0,23.48V47.32H152.9a7.09,7.09,0,0,0-7.14,7.14v5.38A7.15,7.15,0,1,0,160,59.85Z"/><path class="cls-1" d="M188.08,22.36a14.59,14.59,0,0,1,14.57,14.57v0.93c-2.88.09-5.2,0.09-7.33,0.19V36.93a7.23,7.23,0,0,0-7.24-7.14A7.13,7.13,0,0,0,181,36.93v23.2a7,7,0,0,0,7.05,7.15,7.11,7.11,0,0,0,7.24-6.87c3.62,0.28,7.05.46,7.33,0.46a14.53,14.53,0,0,1-29-.74V36.93A14.51,14.51,0,0,1,188.08,22.36Z"/><path class="cls-1" d="M215.93,1.39V73.86h-7.42V1.39h7.42Zm16,72.47-14.1-24.59c-1.39-2.41-1.39-2.69.28-5.57l12.43-20.6h8.44l-14,23.75,15.13,27h-8.17Z"/><path class="cls-1" d="M241.62,37a14.52,14.52,0,1,1,29,0V48.44A3.66,3.66,0,0,1,267,52.15H249V60a7.17,7.17,0,0,0,7.15,7.24h9.37c0.09,2.41.19,4.08,0.37,5.75L257,74.42c-9.09,1.58-15.4-6.31-15.4-14.38V37ZM249,44.82h14.29V37A7.15,7.15,0,1,0,249,37v7.79Z"/><path class="cls-1" d="M284.6,73.86h-7.42V37.67a15.23,15.23,0,0,1,15.59-15.4A16.28,16.28,0,0,1,300,24.13c-0.09,2.23-.19,4.08-0.28,5.75l-8.07-.19c-3.9,0-7.05,4.18-7.05,8V73.86Z"/></svg>